<svg width="829" height="576" fill="none" xmlns="http://www.w3.org/2000/svg"><path d="M213.22 515.052c91.151 0 165.044-5.609 165.044-12.528 0-6.919-73.893-12.528-165.044-12.528-91.152 0-165.044 5.609-165.044 12.528 0 6.919 73.892 12.528 165.044 12.528z" fill="#E6E6E6"/><path d="M809.371 497.943H223.969a19.635 19.635 0 01-13.88-5.746 19.613 19.613 0 01-5.749-13.872c212.208-24.649 420.428-24.649 624.66 0a19.613 19.613 0 01-5.749 13.872 19.635 19.635 0 01-13.88 5.746z" fill="#2F2E41"/><path d="M829 479.479l-624.66-1.154 72.396-121.745.346-.577V87.691a24.802 24.802 0 0115.317-22.912 24.828 24.828 0 019.496-1.887h426.086a24.82 24.82 0 0117.546 7.263 24.783 24.783 0 017.267 17.536v270.158L829 479.479z" fill="#3F3D56"/><path d="M301.331 80.202a8.094 8.094 0 00-5.713 2.368 8.084 8.084 0 00-2.37 5.71v244.643a8.09 8.09 0 008.083 8.078h430.68a8.09 8.09 0 008.083-8.078V88.279a8.088 8.088 0 00-8.083-8.077h-430.68z" fill="#fff"/><path d="M303.135 373.313a3.476 3.476 0 00-3.147 2.015l-22.308 48.467a3.459 3.459 0 00.23 3.315 3.467 3.467 0 002.917 1.594H749.94a3.466 3.466 0 003.461-3.307 3.464 3.464 0 00-.363-1.703l-24.248-48.468a3.447 3.447 0 00-3.097-1.913H303.135z" fill="#2F2E41"/><path d="M514.938 76.163a5.194 5.194 0 005.196-5.193 5.194 5.194 0 00-5.196-5.193 5.194 5.194 0 00-5.196 5.193 5.194 5.194 0 005.196 5.193z" fill="#fff"/><path d="M468.829 437.936a3.468 3.468 0 00-3.345 2.561l-5.595 20.772a3.451 3.451 0 00.595 3.006 3.453 3.453 0 002.749 1.356h106.416a3.464 3.464 0 003.428-2.969 3.461 3.461 0 00-.156-1.625l-7.194-20.772a3.465 3.465 0 00-3.273-2.329h-93.625zM752.794 351.964v4.616H276.736l.359-.577v-4.039h475.699z" fill="#2F2E41"/><path d="M739.516 161.557c44.638 0 80.825-36.166 80.825-80.778C820.341 36.166 784.154 0 739.516 0c-44.638 0-80.825 36.166-80.825 80.779 0 44.612 36.187 80.778 80.825 80.778z" fill="#951CB3"/><path d="M773 115.975h-66.969a4.62 4.62 0 01-4.619-4.616v-40.39a4.626 4.626 0 014.619-4.616H773a4.625 4.625 0 014.618 4.617v40.389a4.62 4.62 0 01-4.618 4.616zM706.031 70.97v40.389h66.972L773 70.969h-66.969z" fill="#fff"/><path d="M760.3 70.97h-41.568V52.506c0-13.373 8.741-23.08 20.784-23.08s20.783 9.707 20.783 23.08l.001 18.464zm-36.949-4.616h32.33V52.506c0-10.87-6.647-18.464-16.165-18.464-9.518 0-16.165 7.593-16.165 18.464v13.848zM739.515 94.626a4.617 4.617 0 004.619-4.616 4.617 4.617 0 00-4.619-4.615 4.617 4.617 0 00-4.619 4.615 4.617 4.617 0 004.619 4.616z" fill="#fff"/><path d="M683.093 258.021H350.248a6.167 6.167 0 01-6.164-6.161v-82.517a6.167 6.167 0 016.164-6.161h332.845a6.167 6.167 0 016.164 6.161v82.517a6.167 6.167 0 01-6.164 6.161zm-332.845-92.374a3.7 3.7 0 00-3.698 3.696v82.517a3.701 3.701 0 003.698 3.696h332.845a3.7 3.7 0 003.698-3.696v-82.517a3.701 3.701 0 00-3.698-3.697l-332.845.001z" fill="#E6E6E6"/><path d="M401.965 232.529c13.867 0 25.108-11.235 25.108-25.094 0-13.859-11.241-25.093-25.108-25.093-13.866 0-25.108 11.234-25.108 25.093s11.242 25.094 25.108 25.094zM459.953 190.706a4.177 4.177 0 00-2.963 1.223 4.177 4.177 0 000 5.919 4.177 4.177 0 002.963 1.223H657.23a4.186 4.186 0 004.185-4.183 4.186 4.186 0 00-4.185-4.182H459.953zM459.952 215.8a4.183 4.183 0 100 8.364h84.889a4.186 4.186 0 004.185-4.182 4.183 4.183 0 00-4.185-4.182h-84.889z" fill="#E6E6E6"/><path d="M205.439 484.95h13.874l6.601-53.513-20.477.002.002 53.511z" fill="#FFB8B8"/><path d="M229.222 480.986h-26.756v16.846h43.602a16.841 16.841 0 00-10.399-15.564 16.841 16.841 0 00-6.447-1.282z" fill="#2F2E41"/><path d="M136.41 484.95h13.874l6.601-53.513-20.477.002.002 53.511z" fill="#FFB8B8"/><path d="M160.193 480.986h-26.756v16.846h43.602a16.852 16.852 0 00-16.846-16.846z" fill="#2F2E41"/><path d="M275.035 293.576a12.154 12.154 0 00-5.104-17.928l-47.162-129.987-23.207 12.664 53.849 124.22a12.223 12.223 0 0021.624 11.031zM143.495 318.001a12.156 12.156 0 003.274-18.351l14.61-137.504-26.41 1.207-6.072 135.253a12.22 12.22 0 006.03 20.812c2.933.592 5.982.088 8.568-1.417zM185.628 121.584c-15.35 0-27.794-12.444-27.794-27.794s12.444-27.794 27.794-27.794 27.794 12.444 27.794 27.794-12.444 27.794-27.794 27.794z" fill="#FFB8B8"/><path d="M143.673 286.729h83.794l-.101-.652c-.151-.975-14.934-97.817-4.031-129.5a13.368 13.368 0 00-6.868-16.503c-15.584-7.339-50.25-14.996-75.499 6.935-3.716 3.28-1.868 6.001-3.726 10.596a31.954 31.954 0 00-2.229 14.5l8.66 114.624z" fill="#951CB3"/><path d="M211.373 202.571l37.725-7.653-17.683-41.904a15.841 15.841 0 00-28.963-4.065 15.839 15.839 0 00-1.711 11.983l10.632 41.639zM163.058 216.782l2.268-51.989c1.72-9.773-3.875-19.012-12.479-20.522-8.606-1.504-17.01 5.274-18.738 15.119l-8.524 48.578 37.473 8.814z" fill="#951CB3"/><path d="M146.461 280.505c-13.483 51.349-14.954 116.636-11.317 187.85l18.106-2.263 32.818-135.796 18.106 138.059 20.369-1.131c6.085-74.722 12.01-138.869 2.263-181.061l-80.345-5.658zM167.315 115.27c5.185 5.523 14.814 2.558 15.49-4.987a9.17 9.17 0 00-.011-1.761c-.349-3.342-2.28-6.377-1.818-9.906a5.196 5.196 0 01.951-2.431c4.132-5.533 13.831 2.474 17.731-2.535 2.391-3.07-.42-7.906 1.415-11.339 2.422-4.53 9.595-2.296 14.093-4.777 5.005-2.76 4.706-10.44 1.411-15.11-4.018-5.696-11.062-8.736-18.019-9.174-6.957-.438-13.866 1.443-20.361 3.974-7.379 2.876-14.697 6.85-19.238 13.339-5.523 7.891-6.054 18.5-3.292 27.727 1.68 5.613 7.414 12.47 11.648 16.98z" fill="#2F2E41"/></svg>