<svg width="198" height="151" fill="none" xmlns="http://www.w3.org/2000/svg"><path fill="#FF8E26" d="M0 0h162v26H0z"/><path fill-rule="evenodd" clip-rule="evenodd" d="M198 5a5 5 0 00-5-5H71a5 5 0 00-5 5v140.766c0 3.794 4.06 6.206 7.392 4.39l56.615-30.852a5 5 0 014.786 0l55.814 30.416c3.332 1.816 7.393-.596 7.393-4.39V5z" fill="#FF8E26"/><path fill-rule="evenodd" clip-rule="evenodd" d="M132 30c16.542 0 30 13.458 30 30s-13.458 30-30 30-30-13.458-30-30 13.458-30 30-30zm0 4.5c-14.061 0-25.5 11.439-25.5 25.5s11.439 25.5 25.5 25.5 25.5-11.439 25.5-25.5-11.439-25.5-25.5-25.5zm-1.016 10.786a2.249 2.249 0 012.25 2.25v13.266l10.215 6.09a2.255 2.255 0 01.78 3.087 2.256 2.256 0 01-3.087.783l-11.31-6.747a2.264 2.264 0 01-1.098-1.935V47.536a2.25 2.25 0 012.25-2.25z" fill="#fff"/></svg>