<svg width="140" height="98" fill="none" xmlns="http://www.w3.org/2000/svg"><path d="M78.597 97.509c-1.965-12.28-2.948-23.334-2.948-33.158 0-22.27 5.158-38.561 15.474-48.877C101.766 5.158 117.977 0 139.754 0v27.017l.246.246c-3.766 0-6.877.246-9.333.737-2.784.491-4.994 1.31-6.632 2.456a28.194 28.194 0 00-3.93 3.684c-.982 1.146-1.719 2.948-2.21 5.404-.491 2.456-.737 4.585-.737 6.386-.164 1.146-.246 3.684-.246 7.614h22.842v43.965H78.597zm-75.65.245C.982 85.474 0 74.421 0 64.597c0-22.27 5.24-38.562 15.72-48.878C26.034 5.404 42.245.246 64.35.246v27.263c-3.601 0-6.713.245-9.332.737-2.948.49-5.077 1.31-6.386 2.456-1.965 1.473-3.275 2.701-3.93 3.684-.983 1.146-1.72 2.947-2.21 5.403l-.983 6.386v7.614h22.596v43.965H2.947z" fill="url(#paint0_linear)" fill-opacity=".15"/><defs><linearGradient id="paint0_linear" x1="70" y1="0" x2="70" y2="97.754" gradientUnits="userSpaceOnUse"><stop/><stop offset="1" stop-color="#C183FF" stop-opacity=".37"/></linearGradient></defs></svg>