<svg width="139" height="31" fill="none" xmlns="http://www.w3.org/2000/svg"><path d="M13.495 5.854c.599-1.843 3.206-1.843 3.804 0l1.106 3.403a2 2 0 001.902 1.382h3.578c1.938 0 2.743 2.48 1.176 3.618l-2.895 2.103a2 2 0 00-.726 2.236L22.545 22c.599 1.842-1.51 3.375-3.077 2.236l-2.895-2.104a2 2 0 00-2.351 0l-2.895 2.104C9.759 25.375 7.65 23.842 8.249 22l1.106-3.404a2 2 0 00-.727-2.236l-2.895-2.103c-1.567-1.139-.761-3.618 1.176-3.618h3.578a2 2 0 001.902-1.382l1.106-3.403zM40.495 5.854c.599-1.843 3.206-1.843 3.804 0l1.106 3.403a2 2 0 001.902 1.382h3.578c1.938 0 2.743 2.48 1.176 3.618l-2.895 2.103a2 2 0 00-.726 2.236L49.544 22c.599 1.842-1.51 3.375-3.077 2.236l-2.895-2.104a2 2 0 00-2.352 0l-2.894 2.104c-1.568 1.139-3.677-.394-3.078-2.236l1.106-3.404a2 2 0 00-.727-2.236l-2.895-2.103c-1.567-1.139-.762-3.618 1.176-3.618h3.578a2 2 0 001.902-1.382l1.106-3.403zM67.495 5.854c.599-1.843 3.206-1.843 3.804 0l1.106 3.403a2 2 0 001.902 1.382h3.578c1.938 0 2.743 2.48 1.176 3.618l-2.895 2.103a2 2 0 00-.726 2.236L76.545 22c.599 1.842-1.51 3.375-3.077 2.236l-2.895-2.104a2 2 0 00-2.351 0l-2.895 2.104c-1.568 1.139-3.677-.394-3.078-2.236l1.106-3.404a2 2 0 00-.727-2.236l-2.895-2.103c-1.567-1.139-.761-3.618 1.176-3.618h3.578a2 2 0 001.902-1.382l1.106-3.403zM94.495 5.854c.599-1.843 3.206-1.843 3.804 0l1.106 3.403a2 2 0 001.902 1.382h3.578c1.938 0 2.743 2.48 1.176 3.618l-2.895 2.103a2 2 0 00-.726 2.236L103.545 22c.599 1.842-1.51 3.375-3.077 2.236l-2.895-2.104a2 2 0 00-2.351 0l-2.895 2.104c-1.568 1.139-3.677-.394-3.078-2.236l1.106-3.404a2 2 0 00-.727-2.236l-2.895-2.103c-1.567-1.139-.761-3.618 1.176-3.618h3.578a2 2 0 001.902-1.382l1.106-3.403zM121.495 5.854c.599-1.843 3.206-1.843 3.804 0l1.106 3.403a2 2 0 001.902 1.382h3.578c1.938 0 2.743 2.48 1.176 3.618l-2.895 2.103a2 2 0 00-.726 2.236L130.545 22c.599 1.842-1.51 3.375-3.077 2.236l-2.895-2.104a2 2 0 00-2.351 0l-2.895 2.104c-1.568 1.139-3.677-.394-3.078-2.236l1.106-3.404a2 2 0 00-.727-2.236l-2.895-2.103c-1.567-1.139-.761-3.618 1.176-3.618h3.578c.867 0 1.635-.558 1.902-1.382l1.106-3.403z" fill="#FDC455"/></svg>