<svg width="231" height="49" fill="none" xmlns="http://www.w3.org/2000/svg"><path d="M23.549 6.163c.3-.921 1.603-.921 1.902 0l3.15 9.693a3 3 0 002.853 2.073h10.191c.97 0 1.372 1.24.588 1.81l-8.245 5.99a3 3 0 00-1.09 3.354l3.15 9.693c.299.921-.756 1.687-1.54 1.118l-8.245-5.99a3 3 0 00-3.526 0l-8.246 5.99c-.783.57-1.838-.197-1.539-1.118l3.15-9.693a3 3 0 00-1.09-3.354l-8.245-5.99c-.784-.57-.381-1.81.587-1.81h10.192a3 3 0 002.854-2.073l3.149-9.693zM69.549 6.163c.3-.921 1.603-.921 1.902 0l3.15 9.693a3 3 0 002.853 2.073h10.192c.968 0 1.371 1.24.587 1.81l-8.245 5.99a3 3 0 00-1.09 3.354l3.15 9.693c.299.921-.756 1.687-1.54 1.118l-8.245-5.99a3 3 0 00-3.526 0l-8.246 5.99c-.783.57-1.838-.197-1.539-1.118l3.15-9.693a3 3 0 00-1.09-3.354l-8.245-5.99c-.784-.57-.381-1.81.587-1.81h10.192a3 3 0 002.854-2.073l3.149-9.693zM114.549 6.163c.299-.921 1.603-.921 1.902 0l3.15 9.693a2.999 2.999 0 002.853 2.073h10.192c.968 0 1.371 1.24.587 1.81l-8.245 5.99a2.999 2.999 0 00-1.09 3.354l3.15 9.693c.299.921-.756 1.687-1.539 1.118l-8.246-5.99a2.999 2.999 0 00-3.526 0l-8.246 5.99c-.783.57-1.838-.197-1.539-1.118l3.15-9.693a2.999 2.999 0 00-1.09-3.354l-8.245-5.99c-.784-.57-.381-1.81.588-1.81h10.191c1.3 0 2.452-.837 2.853-2.073l3.15-9.693zM160.549 6.163c.299-.921 1.603-.921 1.902 0l3.15 9.693a2.999 2.999 0 002.853 2.073h10.192c.968 0 1.371 1.24.587 1.81l-8.245 5.99a2.999 2.999 0 00-1.09 3.354l3.15 9.693c.299.921-.756 1.687-1.539 1.118l-8.246-5.99a2.999 2.999 0 00-3.526 0l-8.246 5.99c-.783.57-1.838-.197-1.539-1.118l3.15-9.693a2.999 2.999 0 00-1.09-3.354l-8.245-5.99c-.784-.57-.381-1.81.587-1.81h10.192c1.3 0 2.452-.837 2.853-2.073l3.15-9.693z" fill="#fff" stroke="#fff" stroke-width="2"/><path d="M205.549 6.163c.299-.921 1.603-.921 1.902 0l3.15 9.693a2.999 2.999 0 002.853 2.073h10.192c.968 0 1.371 1.24.587 1.81l-8.245 5.99a2.999 2.999 0 00-1.09 3.354l3.15 9.693c.299.921-.756 1.687-1.539 1.118l-8.246-5.99a2.999 2.999 0 00-3.526 0l-8.246 5.99c-.783.57-1.838-.197-1.539-1.118l3.15-9.693a2.999 2.999 0 00-1.09-3.354l-8.245-5.99c-.784-.57-.381-1.81.587-1.81h10.192c1.3 0 2.452-.837 2.853-2.073l3.15-9.693z" stroke="#fff" stroke-width="2"/></svg>