<svg width="31" height="31" fill="none" xmlns="http://www.w3.org/2000/svg"><path d="M29.942 22.712v4.366a2.909 2.909 0 01-3.173 2.91 28.8 28.8 0 01-12.558-4.467 28.377 28.377 0 01-8.732-8.732A28.799 28.799 0 011.012 4.173 2.91 2.91 0 013.908 1h4.365a2.91 2.91 0 012.91 2.503 18.685 18.685 0 001.02 4.09 2.91 2.91 0 01-.655 3.07L9.699 12.51a23.284 23.284 0 008.732 8.731l1.848-1.848a2.91 2.91 0 013.07-.655c1.32.493 2.693.835 4.09 1.019a2.91 2.91 0 012.503 2.954z" stroke="#951CB3" stroke-width="2" stroke-linecap="round" stroke-linejoin="round"/></svg>