<svg width="31" height="30" fill="none" xmlns="http://www.w3.org/2000/svg"><path d="M11.105 19.022a12.004 12.004 0 01-2.606-3.89 12.053 12.053 0 01-.908-4.582c0-1.618.326-3.165.908-4.583a12.004 12.004 0 012.606-3.89l.064-.064A13.37 13.37 0 005.67 5.688a13.236 13.236 0 00-3.395 8.87c0 3.667 1.49 6.99 3.897 9.398a13.25 13.25 0 009.395 3.897c3.427 0 6.527-1.29 8.87-3.395a13.373 13.373 0 003.673-5.5l-.063.064a11.952 11.952 0 01-8.471 3.515c-1.618 0-3.164-.327-4.582-.909a12.002 12.002 0 01-3.89-2.606zm-1.363-4.4a10.894 10.894 0 002.311 3.452c.988.98 2.16 1.77 3.45 2.311a10.778 10.778 0 008.137 0 10.718 10.718 0 005.211-4.63.658.658 0 01.67-.367c.374.04.637.366.605.74a14.69 14.69 0 01-4.789 9.334 14.545 14.545 0 01-9.77 3.738c-4.04 0-7.697-1.642-10.351-4.288A14.624 14.624 0 01.929 14.56c0-3.762 1.418-7.19 3.737-9.772A14.618 14.618 0 0113.998.005a.67.67 0 01.398 1.251 10.706 10.706 0 00-4.654 5.229 10.563 10.563 0 00-.797 4.065c0 1.442.28 2.821.797 4.072z" fill="#BC3DDC"/></svg>