<svg width="33" height="29" fill="none" xmlns="http://www.w3.org/2000/svg"><path d="M16.508 6.003a7.506 7.506 0 017.503 7.503c0 .976-.195 1.891-.54 2.746l4.382 4.382A17.734 17.734 0 0033 13.506C30.404 6.918 23.996 2.251 16.492 2.251c-2.1 0-4.111.375-5.972 1.05l3.241 3.242a7.283 7.283 0 012.747-.54zM1.5 1.906l3.421 3.421.69.69A17.714 17.714 0 000 13.508C2.596 20.093 9.004 24.76 16.508 24.76c2.326 0 4.547-.45 6.573-1.26l.63.63 4.397 4.382 1.906-1.906L3.407 0 1.5 1.906zm8.298 8.299l2.327 2.326c-.075.315-.12.645-.12.975a4.496 4.496 0 004.502 4.502c.33 0 .66-.045.975-.12l2.326 2.326c-1.006.495-2.116.796-3.302.796a7.506 7.506 0 01-7.503-7.504c0-1.185.3-2.296.795-3.301zm6.468-1.17l4.727 4.726.03-.24a4.496 4.496 0 00-4.502-4.502l-.255.015z" fill="#343434"/></svg>