<svg width="60" height="41" fill="none" xmlns="http://www.w3.org/2000/svg"><path d="M58.386 7.03l-18.12 13.656 18.12 13.656V7.03zM35.087 1.567H6.613c-2.86 0-5.177 2.446-5.177 5.463v27.312c0 3.017 2.317 5.462 5.177 5.462h28.474c2.859 0 5.177-2.446 5.177-5.462V7.03c0-3.017-2.318-5.463-5.177-5.463z" stroke="#343434" stroke-width="2" stroke-linecap="round" stroke-linejoin="round"/><path d="M14.375 19.807c1.986 0 3.89.832 5.295 2.314 1.404 1.482 2.193 3.491 2.193 5.587M14.377 13.663c3.53 0 6.917 1.48 9.413 4.114 2.497 2.634 3.9 6.207 3.9 9.932M15.207 27.708c.46 0 .832-.393.832-.878s-.372-.878-.832-.878c-.46 0-.832.393-.832.878s.373.878.832.878z" stroke="#343434" stroke-width="2" stroke-linecap="round" stroke-linejoin="round"/></svg>