<svg width="36" height="30" fill="none" xmlns="http://www.w3.org/2000/svg"><mask id="a" fill="#fff"><path d="M1.223 2.877c.405-.025.811-.041 1.209-.041V.75c0-.416.34-.75.762-.75a.75.75 0 01.195.024c2.726.595 5.38 1.736 7.96 3.456 2.36 1.58 4.649 3.626 6.872 6.169 2.215-2.543 4.503-4.588 6.864-6.17C27.665 1.76 30.32.62 33.045.025A.797.797 0 0133.24 0c.421 0 .762.334.762.75v2.086c.398 0 .803.016 1.21.04a.75.75 0 01.762.75v14.996c0 .44-.39.79-.828.741a17.493 17.493 0 00-5.371.294V29.2c0 .505-.52.872-1.022.7L18.22 26.128l-10.54 3.774c-.495.17-1.014-.196-1.014-.701v-9.543a17.508 17.508 0 00-5.371-.294.753.753 0 01-.836-.741V3.627a.75.75 0 01.763-.75zm17.753 8.198v10.97c2.11-2.331 4.219-4.165 6.336-5.559 2.386-1.572 4.78-2.583 7.173-3.088V1.703c-2.24.587-4.422 1.59-6.548 3.007-2.385 1.59-4.698 3.708-6.961 6.365zm2.036 10.994c3.935-2.812 8.414-4.54 13.445-4.254V4.335c-.154 0-.3-.008-.455-.008v9.682c0 .359-.26.668-.633.733-2.401.424-4.803 1.394-7.22 2.983-1.713 1.125-3.425 2.567-5.137 4.344zM2.432 4.327c-.146 0-.3.009-.455.009v13.479c5.03-.285 9.51 1.442 13.453 4.254-1.72-1.777-3.432-3.22-5.144-4.344-2.41-1.589-4.82-2.559-7.222-2.983a.748.748 0 01-.632-.733V4.327zm15.026 17.717V11.075C15.203 8.418 12.882 6.3 10.505 4.71 8.37 3.292 6.188 2.29 3.949 1.703v11.695c2.402.505 4.787 1.516 7.18 3.088 2.11 1.394 4.22 3.228 6.33 5.558zm10.8-1.996c-3.156.961-6.02 2.754-8.609 5.004l8.609 3.08v-8.084zm-11.473 5.004c-2.588-2.25-5.453-4.043-8.6-5.004v8.084l8.6-3.08z"/></mask><path d="M1.223 2.877c.405-.025.811-.041 1.209-.041V.75c0-.416.34-.75.762-.75a.75.75 0 01.195.024c2.726.595 5.38 1.736 7.96 3.456 2.36 1.58 4.649 3.626 6.872 6.169 2.215-2.543 4.503-4.588 6.864-6.17C27.665 1.76 30.32.62 33.045.025A.797.797 0 0133.24 0c.421 0 .762.334.762.75v2.086c.398 0 .803.016 1.21.04a.75.75 0 01.762.75v14.996c0 .44-.39.79-.828.741a17.493 17.493 0 00-5.371.294V29.2c0 .505-.52.872-1.022.7L18.22 26.128l-10.54 3.774c-.495.17-1.014-.196-1.014-.701v-9.543a17.508 17.508 0 00-5.371-.294.753.753 0 01-.836-.741V3.627a.75.75 0 01.763-.75zm17.753 8.198v10.97c2.11-2.331 4.219-4.165 6.336-5.559 2.386-1.572 4.78-2.583 7.173-3.088V1.703c-2.24.587-4.422 1.59-6.548 3.007-2.385 1.59-4.698 3.708-6.961 6.365zm2.036 10.994c3.935-2.812 8.414-4.54 13.445-4.254V4.335c-.154 0-.3-.008-.455-.008v9.682c0 .359-.26.668-.633.733-2.401.424-4.803 1.394-7.22 2.983-1.713 1.125-3.425 2.567-5.137 4.344zM2.432 4.327c-.146 0-.3.009-.455.009v13.479c5.03-.285 9.51 1.442 13.453 4.254-1.72-1.777-3.432-3.22-5.144-4.344-2.41-1.589-4.82-2.559-7.222-2.983a.748.748 0 01-.632-.733V4.327zm15.026 17.717V11.075C15.203 8.418 12.882 6.3 10.505 4.71 8.37 3.292 6.188 2.29 3.949 1.703v11.695c2.402.505 4.787 1.516 7.18 3.088 2.11 1.394 4.22 3.228 6.33 5.558zm10.8-1.996c-3.156.961-6.02 2.754-8.609 5.004l8.609 3.08v-8.084zm-11.473 5.004c-2.588-2.25-5.453-4.043-8.6-5.004v8.084l8.6-3.08z" fill="#fff"/><path d="M1.223 2.877l-.078 3.999.16.003.158-.01-.24-3.992zm1.209-.041v4h4v-4h-4zM3.389.024L2.286 3.87l.124.036.126.027L3.39.024zm7.96 3.456L13.574.156l-.007-.005-2.218 3.329zm6.872 6.169l-3.011 2.633 3.017 3.45 3.01-3.455-3.016-2.628zm6.864-6.17L22.867.152l-.007.005 2.225 3.324zm7.96-3.455l.853 3.908.06-.013.061-.015-.974-3.88zm.957 2.812h-4v4h4v-4zm1.21.04L34.97 6.87l.158.01.16-.004-.078-4zm-.066 16.487l.444-3.975-.023-.003-.023-.002-.398 3.98zm-5.371.294l-.824-3.915-3.176.669v3.246h4zM28.753 29.9l-1.35 3.765.03.011.031.01 1.289-3.786zM18.22 26.127l1.35-3.765-1.35-.483-1.348.482 1.348 3.766zm-10.54 3.774l1.307 3.78.02-.007.021-.008-1.348-3.765zM6.667 19.657h4v-3.25l-3.18-.665-.82 3.915zm-5.371-.294l-.398-3.98-.02.002-.018.002.436 3.976zm17.68-8.288L15.93 8.481l-.955 1.121v1.473h4zm0 10.97h-4v10.38l6.965-7.696-2.965-2.685zm6.336-5.559l2.2 3.342.002-.002-2.202-3.34zm7.173-3.088l.826 3.913 3.174-.67v-3.243h-4zm0-11.695h4V-3.48l-5.014 1.314 1.014 3.87zM25.937 4.71l2.218 3.33.002-.002-2.22-3.328zM21.012 22.07l-2.88-2.776 5.205 6.03-2.325-3.254zm13.445-4.254l-.227 3.993 4.227.24v-4.233h-4zm0-13.48h4v-4h-4v4zm-.455-.008v-4h-4v4h4zm-.633 10.415l-.688-3.94-.007.001.695 3.94zm-7.22 2.983l2.195 3.343h.001l-2.197-3.343zM2.431 4.327h4v-4h-4v4zm-.455.009v-4h-4v4h4zm0 13.479h-4v4.233l4.227-.24-.227-3.993zm13.453 4.254l-2.322 3.257 5.196-6.04-2.874 2.783zm-5.144-4.344l-2.202 3.34.006.003 2.196-3.343zm-7.222-2.983l.696-3.939h-.007l-.689 3.94zm14.394 7.302l-2.965 2.685 6.965 7.696v-10.38h-4zm0-10.969h4V9.606l-.95-1.12-3.05 2.59zM10.505 4.71l2.223-3.325-.01-.006-2.213 3.331zM3.949 1.703l1.014-3.87L-.051-3.48v5.183h4zm0 11.695h-4v3.246l3.176.668.824-3.914zm7.18 3.088l2.205-3.337-.008-.005-2.196 3.342zm17.129 3.562h4v-5.4l-5.166 1.573 1.166 3.827zm-8.609 5.004l-2.624-3.02-5.158 4.483 6.434 2.303 1.348-3.766zm8.609 3.08l-1.348 3.766 5.348 1.914v-5.68h-4zm-11.473-3.08l1.349 3.765 6.431-2.303-5.156-4.482-2.624 3.02zm-8.6-5.004l1.168-3.826-5.169-1.579v5.405h4zm0 8.084h-4v5.682l5.348-1.916-1.349-3.766zM1.462 6.87c.356-.022.677-.034.969-.034v-8c-.504 0-.994.02-1.45.048l.481 7.986zm4.969-4.034V.75h-8v2.086h8zm0-2.086C6.432 2.61 4.914 4 3.194 4v-8C.631-4-1.568-1.942-1.568.75h8zM3.194 4a3.156 3.156 0 01-.908-.13l2.206-7.69A4.743 4.743 0 003.194-4v8zm-.658-.068c2.2.48 4.395 1.41 6.594 2.876L13.567.151c-2.961-1.973-6.073-3.325-9.325-4.035L2.536 3.932zm6.587 2.872c2.028 1.357 4.058 3.158 6.087 5.478l6.022-5.266C18.815 4.251 16.27 1.96 13.574.156l-4.45 6.648zm12.114 5.473c2.018-2.317 4.046-4.116 6.074-5.473L22.86.156c-2.695 1.804-5.243 4.096-7.655 6.866l6.032 5.255zm6.067-5.469c2.199-1.465 4.393-2.395 6.594-2.876l-1.706-7.816c-3.252.71-6.364 2.062-9.325 4.035l4.436 6.657zm6.715-2.904a3.203 3.203 0 01-.78.096v-8c-.403 0-.795.051-1.168.145l1.948 7.759zm-.78.096A3.245 3.245 0 0130.003.75h8c0-2.692-2.2-4.75-4.762-4.75v8zM30.003.75v2.086h8V.75h-8zm4 6.086c.292 0 .613.012.969.034l.48-7.986a24.151 24.151 0 00-1.449-.048v8zm1.286.04a3.25 3.25 0 01-3.314-3.25h8c0-2.62-2.145-4.8-4.84-4.748l.154 7.998zm-3.314-3.25v14.996h8V3.627h-8zm0 14.996a3.25 3.25 0 013.616-3.234l-.887 7.95c2.82.315 5.27-1.903 5.27-4.716h-8zm3.57-3.239c-2.304-.23-4.51-.08-6.593.36L30.6 23.57a13.491 13.491 0 014.15-.228l.795-7.96zm-9.769 4.274V29.2h8v-9.543h-8zm0 9.543c0-2.38 2.312-3.751 4.266-3.086l-2.577 7.573c2.96 1.007 6.311-1.098 6.311-4.487h-8zm4.327-3.065L19.57 22.362l-2.698 7.53 10.532 3.774 2.698-7.531zm-13.23-3.774L6.334 26.135l2.696 7.531 10.54-3.773-2.696-7.532zm-10.498 3.76c2.01-.696 4.293.736 4.293 3.079h-8c0 3.353 3.322 5.518 6.321 4.48l-2.614-7.56zm4.293 3.079v-9.543h-8V29.2h8zm-3.18-13.458a21.507 21.507 0 00-6.59-.359l.797 7.96a13.508 13.508 0 014.153.229l1.64-7.83zM.86 15.386a3.247 3.247 0 013.6 3.235h-8c0 2.844 2.48 5.023 5.271 4.717L.86 15.387zm3.6 3.235V3.627h-8v14.995h8zm0-14.995a3.25 3.25 0 01-3.315 3.249L1.3-1.122c-2.695-.053-4.84 2.127-4.84 4.749h8zm10.516 7.448v10.97h8v-10.97h-8zM21.94 24.73c1.922-2.123 3.78-3.723 5.57-4.901l-4.397-6.683c-2.445 1.609-4.806 3.677-7.104 6.215l5.931 5.369zm5.573-4.903c2.01-1.326 3.943-2.123 5.797-2.515L31.66 9.484c-2.933.62-5.788 1.843-8.549 3.663l4.404 6.679zm8.971-6.428V1.703h-8v11.695h8zM31.471-2.166c-2.71.71-5.297 1.91-7.753 3.549l4.439 6.655c1.795-1.197 3.574-2.002 5.342-2.465l-2.028-7.74zM23.72 1.38c-2.755 1.836-5.337 4.224-7.788 7.1l6.09 5.188c2.076-2.437 4.119-4.287 6.134-5.63l-4.436-6.658zm-.382 23.942c3.39-2.421 6.987-3.736 10.893-3.515l.453-7.987c-6.155-.349-11.515 1.792-15.996 4.993l4.65 6.51zm15.12-7.508V4.335h-8v13.48h8zm-4-17.48l-.119-.002c-.067-.002-.196-.006-.336-.006v8l.119.003c.067.002.196.006.336.006v-8zm-4.455 3.992v9.682h8V4.327h-8zm0 9.682a3.252 3.252 0 012.68-3.207l1.376 7.88c2.227-.388 3.944-2.31 3.944-4.673h-8zm2.672-3.206c-2.998.53-5.905 1.727-8.723 3.58l4.394 6.685c2.018-1.326 3.915-2.068 5.72-2.386l-1.39-7.879zm-8.722 3.579c-2 1.313-3.937 2.957-5.82 4.911l5.76 5.551c1.541-1.598 3.027-2.84 4.452-3.776l-4.392-6.686zM2.432.327c-.137 0-.267.004-.332.006a5.43 5.43 0 01-.123.003v8c.14 0 .269-.004.338-.006a14.781 14.781 0 01.11-.003h.007v-8zm-4.455 4.009v13.479h8V4.335h-8zm4.227 17.472c3.906-.221 7.504 1.094 10.904 3.518l4.644-6.514c-4.487-3.2-9.846-5.34-16.001-4.99l.453 7.986zm16.1-2.521c-1.888-1.95-3.823-3.592-5.822-4.905L8.09 21.068c1.425.936 2.913 2.18 4.466 3.783l5.748-5.564zm-5.816-4.901c-2.817-1.857-5.733-3.054-8.728-3.583l-1.39 7.879c1.808.319 3.71 1.061 5.714 2.382l4.404-6.678zm-8.735-3.584a3.252 3.252 0 012.679 3.207h-8c0 2.363 1.717 4.285 3.944 4.674l1.377-7.88zm2.679 3.207V4.327h-8v9.682h8zm15.026 8.035V13.61h-8v8.434h8zm0-8.434v-2.168h-8v2.168h8zm0-2.168v-.367h-8v.367h8zm-.95-2.956c-2.45-2.884-5.04-5.27-7.78-7.101l-4.446 6.65c2.014 1.347 4.065 3.2 6.127 5.629l6.098-5.178zm-7.79-7.107c-2.46-1.635-5.044-2.835-7.755-3.545L2.935 5.573c1.768.463 3.549 1.268 5.356 2.469l4.428-6.663zm-12.77.324v11.695h8V1.703h-8zm3.177 15.61c1.859.39 3.783 1.186 5.808 2.516l4.393-6.685c-2.763-1.816-5.608-3.04-8.554-3.66l-1.647 7.828zm5.8 2.511c1.787 1.18 3.646 2.782 5.568 4.905l5.93-5.369c-2.297-2.538-4.656-4.604-7.089-6.211l-4.41 6.675zm18.167-3.603c-3.836 1.169-7.183 3.305-10.067 5.811l5.248 6.039c2.293-1.993 4.674-3.442 7.15-4.197l-2.331-7.653zm-8.79 12.597l8.608 3.08 2.695-7.532-8.608-3.08-2.696 7.532zm13.956-.686v-8.084h-8v8.084h8zm-12.85-6.1c-2.883-2.505-6.23-4.641-10.055-5.81l-2.337 7.651c2.47.755 4.852 2.205 7.145 4.198l5.248-6.039zM4.185 20.048v8.084h8v-8.084h-8zm5.349 11.85l8.6-3.08-2.697-7.532-8.6 3.08 2.697 7.532z" fill="#fff" mask="url(#a)"/></svg>