<svg width="485" height="59" viewBox="0 0 485 59" fill="none" xmlns="http://www.w3.org/2000/svg">
<path d="M388.852 19.4485C439.252 8.24853 476.518 27.1144 497.851 36.4477V111.448L28.8509 131.448C-2.48244 106.448 -16.1491 85.4481 28.8506 71.4481C73.8503 57.4481 108.286 40.3434 177.851 48.4481C280.851 60.4481 325.852 33.4485 388.852 19.4485Z" fill="url(#paint0_linear)"/>
<path fill-rule="evenodd" clip-rule="evenodd" d="M42.5867 52.5917C45.2177 51.9087 47.9447 53.5506 48.6507 56.2701C49.3298 58.8865 47.8459 61.573 45.3385 62.343H57.6076C58.3414 62.343 58.9363 62.9379 58.9363 63.6717C58.9363 64.4056 58.3414 65.0004 57.6076 65.0004H16.4172C15.6833 65.0004 15.0885 64.4056 15.0885 63.6717C15.0885 62.9379 15.6833 62.343 16.4172 62.343H42.4617C40.8422 61.8467 39.5048 60.5313 39.0459 58.7634C38.3399 56.044 39.924 53.2829 42.5867 52.5917ZM78.2481 43.3344C80.8791 42.6514 83.6061 44.2933 84.312 47.0127C85.0096 49.6998 83.4255 52.4608 80.7945 53.1438C78.1318 53.835 75.4048 52.1931 74.7072 49.5061C74.0013 46.7866 75.5853 44.0256 78.2481 43.3344ZM14.2476 2.7254L22.1095 1.92508C23.2385 1.84279 24.2655 2.54031 24.6463 3.61635L27.1311 10.7119C27.496 11.7264 28.5218 12.2894 29.5362 12.0261L72.3457 0.913167C74.2793 0.411214 75.7238 0.761925 77.3783 1.92199C79.0329 3.08206 79.8094 5.16116 80.0275 7.17445L82.5292 29.1937C83.0184 33.4242 80.3756 37.3205 76.3498 38.3656L41.7662 47.3431C37.5503 48.4376 33.207 46.0438 31.749 41.8609L19.6714 7.3267L14.6664 7.72751C13.3396 7.83004 12.1242 6.79785 12.01 5.44527C11.8881 4.06356 12.8967 2.8653 14.2476 2.7254ZM65.0254 15.5957L56.2448 17.875C54.9134 18.2207 54.1447 19.5606 54.4976 20.9203C54.8422 22.2476 56.174 23.0768 57.5054 22.7312L66.286 20.4518C67.6173 20.1062 68.3777 18.734 68.0331 17.4066C67.6801 16.0469 66.3567 15.2501 65.0254 15.5957ZM72.6677 63.6715C72.6677 62.9377 72.0728 62.3428 71.339 62.3428H65.5812C64.8473 62.3428 64.2524 62.9377 64.2524 63.6715C64.2524 64.4054 64.8473 65.0003 65.5812 65.0003H71.339C72.0728 65.0003 72.6677 64.4054 72.6677 63.6715ZM77.9828 63.6715C77.9828 62.9377 78.5777 62.3428 79.3115 62.3428H103.671C104.405 62.3428 105 62.9377 105 63.6715C105 64.4054 104.405 65.0003 103.671 65.0003H79.3115C78.5777 65.0003 77.9828 64.4054 77.9828 63.6715Z" fill="url(#paint1_linear)"/>
<defs>
<linearGradient id="paint0_linear" x1="248.925" y1="16" x2="-16" y2="45" gradientUnits="userSpaceOnUse">
<stop stop-color="#951CB3"/>
<stop offset="1" stop-color="#951CB3" stop-opacity="0"/>
</linearGradient>
<linearGradient id="paint1_linear" x1="-4.84195" y1="-0.992521" x2="68.6807" y2="52.6003" gradientUnits="userSpaceOnUse">
<stop stop-color="#E992FF"/>
<stop offset="0.4375" stop-color="#CE64E8"/>
<stop offset="1" stop-color="#A722C8"/>
</linearGradient>
</defs>
</svg>
