<svg width="29" height="30" viewBox="0 0 29 30" fill="none" xmlns="http://www.w3.org/2000/svg">
<path d="M10.15 0.000244141C4.56148 0.000244141 0 4.6127 0 10.2637C0 15.9146 4.56148 20.5271 10.15 20.5271C12.6846 20.5271 15.0003 19.5712 16.7826 18.0071L17.4 18.6313V20.5271L26.1 29.3243L29 26.3919L20.3 17.5947H18.4252L17.8078 16.9704C19.3546 15.1681 20.3 12.8266 20.3 10.2637C20.3 4.6127 15.7385 0.000244141 10.15 0.000244141ZM10.15 2.93265C14.1712 2.93265 17.4 6.19749 17.4 10.2637C17.4 14.3298 14.1712 17.5947 10.15 17.5947C6.12876 17.5947 2.9 14.3298 2.9 10.2637C2.9 6.19749 6.12876 2.93265 10.15 2.93265Z" fill="white"/>
</svg>
