<svg width="34" height="41" fill="none" xmlns="http://www.w3.org/2000/svg"><path fill-rule="evenodd" clip-rule="evenodd" d="M6.38 6.38a14.955 14.955 0 0125.53 10.575c0 5.802-3.755 11.32-7.704 15.488a52.938 52.938 0 01-7.151 6.265l-.1.072-.1-.072a52.935 52.935 0 01-7.151-6.265C5.753 28.275 2 22.757 2 16.954c0-3.966 1.576-7.77 4.38-10.574zM16.4 40.832l.555-.832-.555.832a1 1 0 001.11 0L16.953 40l.556.832v-.001l.004-.002.01-.007.038-.026.141-.096c.122-.085.299-.209.523-.37a54.957 54.957 0 007.432-6.511c4.028-4.253 8.251-10.258 8.251-16.865a16.954 16.954 0 00-33.909 0c0 6.607 4.223 12.612 8.251 16.864a54.944 54.944 0 007.433 6.511 32.933 32.933 0 00.663.467l.038.026.01.007.003.002h.001zm-3.765-23.877a4.318 4.318 0 118.636 0 4.318 4.318 0 01-8.636 0zm4.318-6.319a6.318 6.318 0 100 12.637 6.318 6.318 0 000-12.637z" fill="#951CB3"/></svg>