<svg width="60" height="60" viewBox="0 0 60 60" fill="none" xmlns="http://www.w3.org/2000/svg">
<path d="M51.1629 8.71923C45.5474 3.09983 38.0804 0.00342853 30.1248 0C13.7312 0 0.390047 13.3369 0.383484 29.7298C0.381574 34.9698 1.75073 40.0849 4.35313 44.5937L0.133789 60L15.9 55.8659C20.2439 58.2349 25.1349 59.4832 30.112 59.4852H30.1247H30.1248C46.5158 59.4852 59.859 46.146 59.8659 29.7539C59.8687 21.8091 56.7777 14.339 51.1629 8.71923ZM30.1248 54.4638H30.1152C25.6788 54.4614 21.3283 53.2703 17.5336 51.0186L16.6305 50.4833L7.27448 52.9363L9.77241 43.8176L9.18402 42.8827C6.70936 38.948 5.40295 34.4008 5.40481 29.7317C5.41024 16.1064 16.4989 5.02167 30.1342 5.02167C36.7371 5.02441 42.9431 7.59815 47.6106 12.2688C52.2777 16.9395 54.8461 23.1484 54.8442 29.7518C54.8384 43.3775 43.7494 54.4638 30.1248 54.4638Z" fill="#E0E0E0"/>
<path d="M1.49902 58.2907L5.52563 43.5882C3.04147 39.2853 1.7351 34.4035 1.73667 29.4038C1.74318 13.76 14.475 1.03271 30.1185 1.03271C37.711 1.03614 44.837 3.99095 50.1948 9.3538C55.5538 14.7166 58.5033 21.8449 58.5002 29.426C58.4937 45.0701 45.7611 57.7985 30.1196 57.7985C30.1185 57.7985 30.1204 57.7985 30.1196 57.7985H30.1069C25.3571 57.797 20.69 56.6047 16.5448 54.3455L1.49902 58.2907Z" fill="url(#paint0_linear)"/>
<path fill-rule="evenodd" clip-rule="evenodd" d="M22.7755 17.1078C22.2253 15.8844 21.646 15.8599 21.1225 15.8385C20.6943 15.8202 20.2041 15.8213 19.7147 15.8213C19.2249 15.8213 18.429 16.0054 17.756 16.7404C17.0825 17.4755 15.1846 19.2525 15.1846 22.8666C15.1846 26.4811 17.8172 29.9736 18.1841 30.4641C18.5515 30.9539 23.2661 38.6076 30.7327 41.5521C36.9381 43.9991 38.2009 43.5124 39.5478 43.3899C40.8947 43.2675 43.8939 41.6133 44.5061 39.8979C45.1184 38.1828 45.1184 36.7127 44.9347 36.4054C44.751 36.0993 44.2612 35.9157 43.5265 35.5483C42.7919 35.181 39.1804 33.4036 38.507 33.1587C37.8335 32.9138 37.3437 32.7913 36.8539 33.5268C36.3641 34.2615 34.9571 35.9157 34.5286 36.4054C34.1 36.8964 33.6714 36.9576 32.9367 36.5902C32.2021 36.2218 29.8361 35.4469 27.0294 32.9443C24.8457 30.9974 23.3713 28.5929 22.9427 27.8574C22.5142 27.1228 22.8968 26.7248 23.2653 26.3586C23.5951 26.0295 24 25.5011 24.3673 25.0721C24.7339 24.6431 24.8563 24.337 25.1012 23.8472C25.3461 23.3567 25.2237 22.9278 25.04 22.5604C24.8563 22.1931 23.4287 18.5603 22.7755 17.1078Z" fill="white"/>
<path d="M50.9199 8.62503C45.3688 3.07013 37.9875 0.00933688 30.1234 0.00585938C13.9179 0.00585938 0.729882 13.1896 0.723367 29.3944C0.721457 34.5743 2.07489 39.6306 4.64741 44.0877L0.476562 59.3171L16.0618 55.2304C20.3559 57.5721 25.1907 58.8062 30.1107 58.8081H30.1232H30.1234C46.3262 58.8081 59.5161 45.6221 59.523 29.4181C59.5257 21.5646 56.4702 14.1803 50.9199 8.62503ZM30.1234 53.8445H30.1138C25.7283 53.8422 21.4277 52.6647 17.6766 50.4389L16.7839 49.9097L7.53526 52.3345L10.0045 43.3205L9.42286 42.3964C6.97661 38.5068 5.68518 34.0118 5.68709 29.3963C5.69243 15.9275 16.6538 4.96997 30.1326 4.96997C36.6598 4.97267 42.7944 7.51688 47.4084 12.1339C52.022 16.751 54.5608 22.8886 54.5589 29.4162C54.5532 42.8854 43.5914 53.8445 30.1234 53.8445Z" fill="white"/>
<defs>
<linearGradient id="paint0_linear" x1="29.9996" y1="58.2907" x2="29.9996" y2="1.03281" gradientUnits="userSpaceOnUse">
<stop stop-color="#20B038"/>
<stop offset="1" stop-color="#60D66A"/>
</linearGradient>
</defs>
</svg>
