<svg width="29" height="28" viewBox="0 0 29 28" fill="none" xmlns="http://www.w3.org/2000/svg">
<path d="M10.15 0C4.56148 0 0 4.25738 0 9.47333C0 14.6893 4.56148 18.9467 10.15 18.9467C12.6846 18.9467 15.0003 18.0643 16.7826 16.6206L17.4 17.1968V18.9467L26.1 27.0667L29 24.36L20.3 16.24H18.4252L17.8078 15.6638C19.3546 14.0002 20.3 11.839 20.3 9.47333C20.3 4.25738 15.7385 0 10.15 0ZM10.15 2.70667C14.1712 2.70667 17.4 5.72017 17.4 9.47333C17.4 13.2265 14.1712 16.24 10.15 16.24C6.12876 16.24 2.9 13.2265 2.9 9.47333C2.9 5.72017 6.12876 2.70667 10.15 2.70667Z" fill="#343434"/>
</svg>
