<svg width="46" height="41" fill="none" xmlns="http://www.w3.org/2000/svg"><path fill-rule="evenodd" clip-rule="evenodd" d="M18.333 0A5.333 5.333 0 0013 5.333v3.334H5.333A5.333 5.333 0 000 14v21.667A5.333 5.333 0 005.333 41H40a5.333 5.333 0 005.333-5.333V14A5.333 5.333 0 0040 8.667h-7.667V5.333A5.333 5.333 0 0027 0h-8.667zm12 8.667V5.333A3.333 3.333 0 0027 2h-8.667A3.333 3.333 0 0015 5.333v3.334h15.333zm-15.333 2h15.333V39H15V10.667zm-2 0H5.333A3.333 3.333 0 002 14v21.667A3.333 3.333 0 005.333 39H13V10.667zM32.333 39V10.667H40A3.333 3.333 0 0143.333 14v21.667A3.333 3.333 0 0140 39h-7.667z" fill="#951CB3"/></svg>