<?xml version="1.0" encoding="UTF-8"?>
<!DOCTYPE svg PUBLIC "-//W3C//DTD SVG 1.1//EN" "http://www.w3.org/Graphics/SVG/1.1/DTD/svg11.dtd">
<!-- Creator: CorelDRAW 2019 (64-Bit) -->
<svg xmlns="http://www.w3.org/2000/svg" xml:space="preserve" width="1349px" height="480px" version="1.1" style="shape-rendering:geometricPrecision; text-rendering:geometricPrecision; image-rendering:optimizeQuality; fill-rule:evenodd; clip-rule:evenodd"
viewBox="0 0 1349 479.97"
 xmlns:xlink="http://www.w3.org/1999/xlink"
 xmlns:xodm="http://www.corel.com/coreldraw/odm/2003">
 <defs>
  <style type="text/css">
   <![CDATA[
    .fil2 {fill:blue}
    .fil4 {fill:#E6252D}
    .fil3 {fill:#F9CD09}
    .fil1 {fill:red}
    .fil0 {fill:white}
    .fil5 {fill:red;fill-rule:nonzero}
   ]]>
  </style>
 </defs>
 <g id="Layer_x0020_1">
  <metadata id="CorelCorpID_0Corel-Layer"/>
  <polygon class="fil0" points="0,0 1349,0 1349,479.97 0,479.97 "/>
  <path class="fil1" d="M59.91 30.03l1229.18 0c17.28,0 31.41,14.37 31.41,31.94l0 98.56 -153.83 0c-8.08,-89.25 -413.18,-108.27 -483.18,-108.8 -112.85,-0.86 -501.53,25.7 -501.53,107.07l0 1.73 -153.46 0 0 -98.56c0,-17.57 14.13,-31.94 31.41,-31.94z"/>
  <path class="fil2" d="M181.85 306.43l-153.35 0 0 -132.51 153.43 0c-0.13,41.52 -0.69,92.43 -0.08,132.51zm1138.65 -132.51l0 132.51 -153.48 0c1.21,-41.43 -1.51,-90.71 -0.52,-132.51l154 0z"/>
  <path class="fil3" d="M1320.5 319.82l0 98.18c0,17.57 -14.13,31.94 -31.41,31.94l-1229.18 0c-17.28,0 -31.41,-14.37 -31.41,-31.94l0 -98.18 154.38 0c18.96,80.2 337.34,111.71 496.62,112.6 89.72,0.5 463.24,-28.03 486.15,-112.6l154.85 0z"/>
  <path class="fil4" d="M681.59 75.14c87.49,0.81 462.23,38.89 458.78,86.16 -2.89,39.69 2.99,116.65 0,156.34 -3.47,46 -373.95,86.22 -461.15,85.48 -94,-0.79 -469.3,-31.9 -470.84,-89.74 -1.05,-39.77 0,-107.92 0,-147.7 0,-59.04 377.76,-91.41 473.21,-90.54zm-0.39 36.23l0 0c-90.12,-0.69 -446.81,21.06 -446.81,67.05 0,31 -0.97,92.22 0,123.21 1.44,46.22 355.82,64.65 444.57,65.27 82.34,0.57 432.15,-26.12 435.43,-61.96 2.82,-30.92 -2.73,-97.84 0,-128.77 3.25,-36.82 -350.58,-64.18 -433.19,-64.8z"/>
  <path class="fil2" d="M532.25 244.26c4.6,2.07 3.72,13.22 -1.96,24.82 -5.68,11.59 -14.06,19.35 -18.67,17.28 -4.6,-2.08 -3.72,-13.23 1.96,-24.83 5.68,-11.59 14.06,-19.35 18.67,-17.27zm311.8 1l0 0c4.6,2.08 3.73,13.23 -1.95,24.82 -5.68,11.59 -14.07,19.35 -18.67,17.28 -4.61,-2.08 -3.73,-13.22 1.95,-24.82 5.68,-11.59 14.07,-19.35 18.67,-17.28zm153.06 -3.26l0 0c2.52,1.91 0.25,9.19 -5.06,16.21 -5.31,7.02 -11.69,11.19 -14.2,9.29 -2.52,-1.9 -0.25,-9.18 5.06,-16.2 5.31,-7.02 11.68,-11.2 14.2,-9.3zm3.23 -15.02l0 0c-17.5,-1.34 -29.22,10.81 -35.36,22.8 -4.87,9.51 -6.32,23.18 -2.84,34.59 -5.04,4.08 -11.34,7.6 -21.35,9.6 -4.97,0.99 -7.71,-2.77 -7.66,-6.22 0.12,-9.94 1.19,-18.26 4.04,-27.58 1.17,-3.85 5.16,-2.54 6.51,-5.8 2.78,-6.76 3.12,-13.29 -5.8,-12.22 -5.72,0.68 -11.93,1.55 -12.15,-6.2 -0.21,-7.56 9.03,-11.6 7.65,-12.26 -5.1,-2.45 -9.41,-0.02 -14.74,-1.92 -1.49,-0.53 -0.27,-3.92 -1.77,-4.43 -2.04,-0.67 -5.63,1.48 -6.8,3.27 -2.58,3.96 -2.36,7.57 -4.28,12.24 -1.6,3.91 -1.77,8.26 -2.65,12.4 -2.78,8.14 -20.41,33.36 -33.36,39.94 -7.28,3.69 -11.86,0.44 -9.61,-7.16 3.01,-10.15 13,-34.85 19.49,-52.27 -6.35,0.15 -11.98,0.65 -18.33,0.8 -0.74,2.21 -1.84,3.72 -2.57,5.93 -14.23,-9.11 -22.89,-5.62 -35.8,3.67 -9.62,6.92 -18.05,17.38 -22.59,29.91 -1.8,4.97 -2.79,10.01 -2.92,14.73 -7.86,2.84 -15.67,7.05 -22.68,6.01 -1.71,-0.26 -2.88,-2.87 -2.49,-4.56 2.35,-10.13 7.31,-19.5 10.37,-29.44 1.92,-6.24 5.75,-12.64 4.56,-19.07 -1.6,-8.65 -12.64,-8.91 -18.66,-5.8 -5.1,2.65 -9,7.28 -14.09,9.95 -1.02,0.53 -2.47,-0.06 -3.32,-0.83 -2.19,-1.98 -3.23,-5.03 -5.39,-7.04 -1.91,-1.78 -4.08,-3.63 -6.64,-4.15 -3.12,-0.65 -6.58,-0.4 -9.53,0.82 -6.24,2.6 -10.69,9.69 -17.41,10.37 -2.91,0.3 -1.04,-6.04 -2.91,-8.29 -4.49,-5.43 -8.8,-3.55 -14.09,-1.25 -10.87,4.72 -21.62,9.74 -32.41,14.63 1.06,2.18 1.97,4.45 2.7,6.8 4.31,-1.48 8.76,-3.36 13.13,-4.43 2.01,-0.49 4.46,-1.52 6.21,-0.41 1.59,1 2.22,3.59 1.66,5.39 -5.9,19 -13.82,37.31 -20.73,55.97 7.19,-0.14 14.37,-0.28 21.56,-0.41 6.5,-16.73 11.03,-34.35 19.49,-50.17 1.52,-2.85 5.94,-3.95 9.12,-3.32 2.18,0.44 2.93,3.61 3.32,5.8 0.48,2.74 0.06,5.66 -0.83,8.3 -4.53,13.34 -10.23,26.25 -15.34,39.39 7.88,-0.15 16.17,0.55 24.04,0.41 7.6,-17.42 10.59,-35.27 19.9,-51.83 1.16,-2.06 7.27,-2.73 9.54,-2.07 1.51,0.44 3.23,2.19 2.9,3.73 -2.01,9.32 -7.16,17.72 -9.53,26.95 -1.11,4.29 -2.04,9.01 -0.83,13.26 1.01,3.6 3.71,7.04 7.05,8.72 2.84,1.42 6.59,0.8 9.53,-0.42 11.16,-4.63 21.5,-10.99 32.18,-16.66 1.87,11.99 10.49,20.21 26.91,16.57 5.73,-1.28 8.85,-5.02 14.17,-7.53 2.68,8.59 8.61,12.11 18.15,8.19 23.55,-9.67 37.35,-26.48 54.77,-51.69 2.81,0.63 8.34,-0.96 11.15,-0.92 -3,9.07 -21.57,41.45 -2.16,51.2 5.42,2.72 9.57,1.83 15.54,0.75 13.41,-2.45 21.68,-8.14 28.13,-13.47 3.27,6.42 8.52,11.54 16.1,13.86 15.44,4.74 33.1,-3.43 44.13,-8.3 5.88,10.15 21.04,12.02 29.91,8.79 9.34,-3.4 17.78,-9.35 25.25,-15.94 1.55,-1.37 1.38,-4.85 -0.17,-6.21 -1.46,-1.27 -3.89,1 -5.44,2.16 -6.45,4.81 -19.38,16.96 -26.67,6.76 -3.26,-4.58 -1.09,-12.3 2.14,-21.05 3.15,-8.54 6.19,-19.58 9.27,-28.14 4.41,-0.36 9.35,0.11 13.75,-0.25 1.9,-5.35 2.71,-9.61 4.62,-14.96 -2.97,-0.24 -7.04,0.07 -10.01,-0.17 2.75,-14.33 8.66,-28.92 13.67,-43.25 -6.75,0.13 -12.42,0.53 -19.18,0.66 -4.74,13.93 -8.47,27.59 -14.93,41.53 -4.42,0.13 -9.12,0.53 -13.53,0.66 -1.17,5.21 -2.34,10.42 -3.51,15.63 3.38,-0.13 8.12,-0.26 11.5,-0.39 -4.29,16.34 -8.96,31.09 -18.52,43.75 -3.4,4.5 -9.29,7.07 -14.82,8.2 -16.92,3.47 -23.44,-2.01 -26.13,-9.68 7.15,-5.99 14.25,-8.82 20.68,-15.56 10.37,-10.85 23.1,-39.44 -2.26,-41.37zm-588.08 -63.64l0 0c-26.86,3.09 -66.66,6.04 -89.39,21.01 -13.38,8.8 -25.38,25.71 -13.37,42.92 11.73,16.81 32.69,9.69 41.17,-1.49 -9.7,-1.27 -17.44,-3.08 -18.05,-10.03 -2.77,-31.6 26.11,-25.06 53.81,-34.1 -14.38,34.02 -27.33,94.68 -63.98,102.17 -26.65,5.45 -38.88,-6.33 -45.1,-22.92 -14.77,28.43 6.35,41.4 25.31,44.32 17.52,2.71 39.96,-8.23 52.35,-21.2 8.76,-5.7 17.51,-12.21 25.48,-19.6 2.09,-1.94 31.3,-24.3 28.61,-5.8 -2.38,16.3 -8.85,28.19 -13.69,43.95 7.19,0.13 14.38,0.27 21.56,0.41 5.25,-15.62 9.12,-31.77 15.76,-46.85 1.16,-2.63 4.2,-4.57 7.05,-4.98 2.64,-0.37 6.49,0.43 7.46,2.91 1.71,4.38 -0.72,9.94 -1.97,14.47 -2.02,7.41 -13.2,31.54 1.33,33.39 14.27,1.81 30.31,-8.4 38.77,-15.27 1.18,7.18 4.96,13.43 12.52,17.03 5.21,2.46 11.66,0.88 17.27,-0.4 4.56,-1.05 8.3,-4.29 12.45,-6.43 -0.74,10.41 9.2,9.18 15.85,6.02 15.04,-7.14 23.44,-12.16 33.71,-15.58 -1.06,-1.85 -2,-3.77 -2.82,-5.76 -7.39,1.88 -14.67,5.46 -22.24,4.88 -2.53,-0.2 -3.21,-4.83 -2.41,-7.23 10.61,-31.84 24.1,-62.65 36.14,-93.98 -6.28,0.41 -11.11,0.41 -17.41,0.81 -4.95,13.38 -11.36,27.17 -16.32,40.56 -23.64,-4.33 -45.65,2.28 -61.04,31.72 -3.29,6.29 -5.62,13.65 -6.05,20.73 -5.35,3.51 -10.34,7.12 -16.64,8.69 -2.34,0.59 -4.14,-3.08 -3.73,-5.46 1.37,-7.91 4.12,-15.5 6.79,-23.1 1.82,-5.19 8.56,-20.29 6.06,-25.41 -4.31,-8.86 -10.63,-8.81 -17.04,-6.18 -8.24,3.39 -16.63,11.04 -21.1,9.5 -6.58,-2.27 -4.71,-12.42 -14.59,-11.28 -3.12,0.37 -6.29,1.63 -9.04,2.99 -14.1,6.95 -27.48,16.91 -40.95,25.47 12.93,-24.87 25.2,-58 37.48,-90.9z"/>
  <path class="fil5" d="M619.2 214.85l0.02 0c13.33,0.01 25.44,5.45 34.21,14.22l0 0.01c8.76,8.77 14.2,20.87 14.2,34.19l0 0.02c0,13.34 -5.44,25.45 -14.21,34.22l-0.01 0c-8.77,8.76 -20.86,14.2 -34.19,14.2l-0.02 0c-13.34,0 -25.45,-5.44 -34.21,-14.21 -8.77,-8.77 -14.21,-20.87 -14.21,-34.2l0 -0.03c0,-13.33 5.44,-25.44 14.21,-34.21 8.77,-8.76 20.87,-14.2 34.2,-14.21l0.01 0zm0.02 5.91l-0.03 0c-11.7,0 -22.33,4.78 -30.02,12.48 -7.71,7.7 -12.49,18.33 -12.49,30.03l0 0.03c0.01,11.7 4.78,22.33 12.48,30.03 7.7,7.7 18.34,12.48 30.04,12.48l0.02 0c11.7,-0.01 22.33,-4.78 30.03,-12.48l-0.01 0c7.71,-7.7 12.49,-18.33 12.49,-30.04l0 -0.02c-0.01,-11.7 -4.78,-22.33 -12.47,-30.03l-0.01 0c-7.7,-7.7 -18.33,-12.48 -30.03,-12.48z"/>
  <path class="fil1" d="M619.2 226.65c20.24,0 36.64,16.4 36.64,36.63 0,20.23 -16.4,36.64 -36.64,36.64 -20.23,0 -36.63,-16.41 -36.63,-36.64 0,-20.23 16.4,-36.63 36.63,-36.63zm0 7.54c16.07,0 29.1,13.03 29.1,29.09 0,16.07 -13.03,29.1 -29.1,29.1 -16.06,0 -29.08,-13.03 -29.08,-29.1 0,-16.06 13.02,-29.09 29.08,-29.09z"/>
  <path class="fil1" d="M619.2 241.32c12.13,0 21.97,9.83 21.97,21.96 0,12.13 -9.84,21.97 -21.97,21.97 -12.13,0 -21.96,-9.84 -21.96,-21.97 0,-12.13 9.83,-21.96 21.96,-21.96z"/>
 </g>
</svg>
