<svg width="60" height="75" fill="none" xmlns="http://www.w3.org/2000/svg"><path d="M41.51 0c10.163 0 18.375 4.012 18.488 14.212v56.923c0 .637-.15 1.275-.45 1.837a3.882 3.882 0 0 1-2.325 1.875c-.975.3-2.063.15-2.963-.375l-24.299-12.15-24.336 12.15c-.559.296-1.2.488-1.838.488-2.1 0-3.787-1.725-3.787-3.825V14.212C0 4.012 8.25 0 18.374 0h23.137zm2.55 22.65H15.825c-1.612 0-2.925 1.312-2.925 2.962 0 1.646 1.313 2.962 2.925 2.962h28.237c1.612 0 2.925-1.316 2.925-2.963 0-1.65-1.313-2.962-2.925-2.962z" fill="url(#a)"/><defs><linearGradient id="a" x1="29.999" y1="0" x2="29.999" y2="75" gradientUnits="userSpaceOnUse"><stop stop-color="#E88DFF"/><stop offset="1" stop-color="#951CB3"/></linearGradient></defs></svg>