<svg width="30" height="30" viewBox="0 0 30 30" fill="none" xmlns="http://www.w3.org/2000/svg">
<path d="M13.5 24H16.5V21H13.5V24ZM15 0C6.72 0 0 6.72 0 15C0 23.28 6.72 30 15 30C23.28 30 30 23.28 30 15C30 6.72 23.28 0 15 0ZM15 27C8.385 27 3 21.615 3 15C3 8.385 8.385 3 15 3C21.615 3 27 8.385 27 15C27 21.615 21.615 27 15 27ZM15 6C11.685 6 9 8.685 9 12H12C12 10.35 13.35 9 15 9C16.65 9 18 10.35 18 12C18 15 13.5 14.625 13.5 19.5H16.5C16.5 16.125 21 15.75 21 12C21 8.685 18.315 6 15 6Z" fill="#CD5454"/>
</svg>
