<svg width="29" height="31" viewBox="0 0 29 31" fill="none" xmlns="http://www.w3.org/2000/svg">
<path d="M22.7504 9.7C25.1528 9.7 27.1004 7.75244 27.1004 5.35C27.1004 2.94756 25.1528 1 22.7504 1C20.348 1 18.4004 2.94756 18.4004 5.35C18.4004 7.75244 20.348 9.7 22.7504 9.7Z" stroke="#343434" stroke-width="2" stroke-linecap="round" stroke-linejoin="round"/>
<path d="M5.35 19.8499C7.75244 19.8499 9.7 17.9023 9.7 15.4999C9.7 13.0975 7.75244 11.1499 5.35 11.1499C2.94756 11.1499 1 13.0975 1 15.4999C1 17.9023 2.94756 19.8499 5.35 19.8499Z" stroke="#343434" stroke-width="2" stroke-linecap="round" stroke-linejoin="round"/>
<path d="M22.7504 29.9998C25.1528 29.9998 27.1004 28.0522 27.1004 25.6498C27.1004 23.2474 25.1528 21.2998 22.7504 21.2998C20.348 21.2998 18.4004 23.2474 18.4004 25.6498C18.4004 28.0522 20.348 29.9998 22.7504 29.9998Z" stroke="#343434" stroke-width="2" stroke-linecap="round" stroke-linejoin="round"/>
<path d="M9.10547 17.689L19.009 23.46" stroke="#343434" stroke-width="2" stroke-linecap="round" stroke-linejoin="round"/>
<path d="M18.9945 7.53906L9.10547 13.3101" stroke="#343434" stroke-width="2" stroke-linecap="round" stroke-linejoin="round"/>
</svg>
