<svg width="22" height="30" fill="none" xmlns="http://www.w3.org/2000/svg"><path d="M.666 0h17.549v.016c1.608.12 2.829 1.478 2.836 3.06l-.007.016h.007v23.025a3.08 3.08 0 01-.903 2.177 3.043 3.043 0 01-2.17.906H2.146v-4.824H0V0h.666zM11.59 3.298l4.295 4.3-1.712 1.717-4.294-4.3 1.711-1.717zm-6.766 11.58l4.294 4.308-1.711 1.717-4.286-4.308 1.703-1.717zM19.72 3.092l-.008-.016a1.746 1.746 0 00-1.07-1.59v21.618c.39.088.753.247 1.07.461V3.092h.008zm-1.735 21.284H3.486v3.481h14.491c.476 0 .904-.198 1.22-.516.317-.31.515-.748.515-1.224 0-.477-.198-.914-.515-1.232a1.71 1.71 0 00-1.212-.509zm-.681-23.025H1.339v21.674h15.964V1.35z" fill="#BC3DDC"/></svg>