<svg width="72" height="52" fill="none" xmlns="http://www.w3.org/2000/svg"><path d="M35.527 38.708L50.54 30.17l-15.012-8.537v17.074zM12.683 24.807c6.453 0 11.684-5.23 11.684-11.683 0-6.453-5.231-11.684-11.684-11.684C6.231 1.44 1 6.671 1 13.124c0 6.452 5.23 11.683 11.683 11.683z" stroke="#343434" stroke-width="2" stroke-linecap="round" stroke-linejoin="round"/><path d="M12.684 6.751v7.17l5.31 2.39" stroke="#343434" stroke-width="2" stroke-linecap="round" stroke-linejoin="round"/><path fill-rule="evenodd" clip-rule="evenodd" d="M13.683 30.113a16.73 16.73 0 01-2-.064v.122A76.71 76.71 0 0012.9 44.264a.99.99 0 00.022.096 8.257 8.257 0 005.763 5.703l.005.002c1.227.328 3.28.557 5.588.725 2.336.17 5.018.284 7.55.359a358.842 358.842 0 009.368.15H41.4v-1 1h.205a277.321 277.321 0 002.683-.018c1.758-.02 4.15-.057 6.684-.132 2.533-.075 5.215-.188 7.55-.359 2.308-.168 4.362-.398 5.589-.725l.013-.004a8.258 8.258 0 005.777-6.006 76.717 76.717 0 001.217-13.883A76.715 76.715 0 0069.9 16.08l-.984.177.97-.242a8.257 8.257 0 00-5.797-5.95c-1.219-.298-3.266-.507-5.574-.66-2.334-.156-5.014-.26-7.546-.328a393.033 393.033 0 00-9.365-.137H41.401v0h-.205c-.134 0-.33 0-.58.002a358.96 358.96 0 00-8.786.148c-.912.027-1.842.06-2.769.097.182.646.326 1.309.428 1.984.802-.031 1.607-.058 2.4-.082a356.813 356.813 0 019.31-.15h.201v-1 1h.201l.576.003a390.267 390.267 0 018.739.135c2.52.068 5.17.17 7.467.323 2.31.154 4.184.354 5.214.603a6.258 6.258 0 014.342 4.466 74.713 74.713 0 011.179 13.697v.01a74.712 74.712 0 01-1.18 13.49 6.257 6.257 0 01-4.351 4.47c-1.02.271-2.892.491-5.21.66-2.295.168-4.945.28-7.464.355a356.045 356.045 0 01-9.312.15h-.2v0H41.2l-.575-.003a356.045 356.045 0 01-8.736-.147c-2.52-.075-5.17-.187-7.465-.355-2.32-.169-4.195-.39-5.214-.662a6.258 6.258 0 01-4.35-4.275 74.71 74.71 0 01-1.177-13.68v-.012-.053z" fill="#343434"/></svg>