<svg width="53" height="39" fill="none" xmlns="http://www.w3.org/2000/svg"><path fill-rule="evenodd" clip-rule="evenodd" d="M38.699 2.315c-6.552 0-11.862 5.311-11.862 11.863 0 6.551 5.31 11.862 11.862 11.862 6.551 0 11.862-5.31 11.862-11.862 0-6.552-5.31-11.863-11.862-11.863zM24.837 14.178c0-7.656 6.206-13.863 13.862-13.863S52.56 6.522 52.56 14.178 46.355 28.04 38.7 28.04s-13.862-6.206-13.862-13.862zM0 14.62a1 1 0 011-1h20.291a1 1 0 110 2H1a1 1 0 01-1-1zm0 11.532a1 1 0 011-1H26.616a1 1 0 110 2H1a1 1 0 01-1-1zm1 10.532a1 1 0 100 2h39.808a1 1 0 100-2H1zM39.7 6.46a1 1 0 10-2 0v7.718a1 1 0 00.552.894l5.145 2.573a1 1 0 10.895-1.79l-4.592-2.295v-7.1z" fill="#951CB3"/></svg>