<svg width="32" height="32" viewBox="0 0 32 32" fill="none" xmlns="http://www.w3.org/2000/svg">
<path d="M12.6514 17.0259C13.2782 17.8639 14.078 18.5574 14.9964 19.0591C15.9148 19.5609 16.9304 19.8593 17.9743 19.9341C19.0182 20.0088 20.0659 19.8582 21.0465 19.4924C22.027 19.1267 22.9175 18.5543 23.6573 17.8141L28.0364 13.4351C29.3658 12.0586 30.1015 10.215 30.0849 8.30138C30.0682 6.38777 29.3007 4.55724 27.9475 3.20406C26.5943 1.85088 24.7638 1.08331 22.8502 1.06668C20.9365 1.05005 19.0929 1.78569 17.7165 3.11515L15.2058 5.6112" stroke="#343434" stroke-width="2" stroke-linecap="round" stroke-linejoin="round"/>
<path d="M18.4904 14.107C17.8635 13.2689 17.0638 12.5755 16.1454 12.0737C15.2269 11.572 14.2113 11.2736 13.1675 11.1988C12.1236 11.1241 11.0758 11.2747 10.0953 11.6405C9.11473 12.0062 8.22432 12.5786 7.48442 13.3188L3.10539 17.6978C1.77593 19.0743 1.04029 20.9179 1.05692 22.8315C1.07355 24.7451 1.84111 26.5756 3.19429 27.9288C4.54747 29.282 6.378 30.0496 8.29162 30.0662C10.2052 30.0828 12.0488 29.3472 13.4253 28.0177L15.9214 25.5217" stroke="#343434" stroke-width="2" stroke-linecap="round" stroke-linejoin="round"/>
</svg>
