<svg width="60" height="60" viewBox="0 0 60 60" fill="none" xmlns="http://www.w3.org/2000/svg">
<path d="M30 60C46.5685 60 60 46.5685 60 30C60 13.4315 46.5685 0 30 0C13.4315 0 0 13.4315 0 30C0 46.5685 13.4315 60 30 60Z" fill="#EF72AD"/>
<path d="M30 0C28.6738 0 27.3679 0.0871875 26.087 0.253945C40.8066 2.17148 52.1739 14.7578 52.1739 30C52.1739 45.2422 40.8065 57.8285 26.0869 59.7461C27.3679 59.9128 28.6738 60 30 60C46.5686 60 60 46.5684 60 30C60 13.4316 46.5686 0 30 0Z" fill="#EE539E"/>
<path d="M41.114 10.7607H18.8858C14.4056 10.7607 10.7607 14.4056 10.7607 18.8858V41.1142C10.7607 45.5944 14.4056 49.2393 18.8858 49.2393H41.1142C45.5944 49.2393 49.2393 45.5944 49.2393 41.1142V18.8858C49.239 14.4056 45.5941 10.7607 41.114 10.7607ZM47.2825 41.114C47.2825 44.5153 44.5153 47.2825 41.114 47.2825H18.8858C15.4845 47.2825 12.7173 44.5153 12.7173 41.114V18.8858C12.7173 15.4845 15.4845 12.7173 18.8858 12.7173H41.1142C44.5156 12.7173 47.2827 15.4845 47.2827 18.8858V41.114H47.2825Z" fill="white"/>
<path d="M29.9993 19.8911C24.4253 19.8911 19.8906 24.4258 19.8906 29.9998C19.8906 35.5738 24.4253 40.1085 29.9993 40.1085C35.5734 40.1085 40.1081 35.5738 40.1081 29.9998C40.1081 24.4258 35.5734 19.8911 29.9993 19.8911ZM29.9993 38.152C25.5043 38.152 21.8472 34.4948 21.8472 29.9998C21.8472 25.5049 25.5044 21.8477 29.9993 21.8477C34.4943 21.8477 38.1515 25.5049 38.1515 29.9998C38.1515 34.4948 34.4944 38.152 29.9993 38.152Z" fill="white"/>
<path d="M40.4349 20.8698C41.8756 20.8698 43.0436 19.7018 43.0436 18.2611C43.0436 16.8203 41.8756 15.6523 40.4349 15.6523C38.9941 15.6523 37.8262 16.8203 37.8262 18.2611C37.8262 19.7018 38.9941 20.8698 40.4349 20.8698Z" fill="white"/>
</svg>
