<svg width="198" height="151" fill="none" xmlns="http://www.w3.org/2000/svg"><path fill="#FF8E26" d="M-1 0h177v26H-1z"/><path fill-rule="evenodd" clip-rule="evenodd" d="M198 5a5 5 0 00-5-5H71a5 5 0 00-5 5v140.766c0 3.794 4.06 6.206 7.392 4.39l56.615-30.852a5 5 0 014.786 0l55.814 30.416c3.332 1.816 7.393-.596 7.393-4.39V5z" fill="#FF8E26"/><path fill-rule="evenodd" clip-rule="evenodd" d="M131.621 34.865c-.296 0-1.022.08-1.408.853l-5.922 11.84a6.418 6.418 0 01-4.832 3.47l-13.258 1.91a1.514 1.514 0 00-1.265 1.048c-.081.263-.211.931.392 1.509l9.587 9.21a6.328 6.328 0 011.858 5.66l-2.257 13.005c-.139.813.37 1.287.597 1.45.24.18.882.54 1.677.126l11.853-6.146a6.497 6.497 0 015.955 0l11.85 6.142c.798.412 1.44.052 1.684-.123.227-.162.736-.636.596-1.45l-2.263-13.005a6.328 6.328 0 011.858-5.659l9.587-9.21a1.425 1.425 0 00.392-1.509 1.503 1.503 0 00-1.262-1.047l-13.258-1.91a6.416 6.416 0 01-4.829-3.474l-5.928-11.837c-.383-.772-1.109-.853-1.404-.853zm-15.577 55.134a6.45 6.45 0 01-3.808-1.252 6.309 6.309 0 01-2.51-6.211l2.257-13.005a1.472 1.472 0 00-.438-1.317l-9.586-9.21a6.286 6.286 0 01-1.651-6.506c.752-2.345 2.744-4.022 5.199-4.372l13.258-1.91a1.543 1.543 0 001.174-.834l5.925-11.844c1.093-2.182 3.298-3.538 5.757-3.538a6.394 6.394 0 015.756 3.538l5.929 11.841c.223.45.661.766 1.17.837l13.259 1.91c2.455.35 4.446 2.027 5.198 4.372a6.288 6.288 0 01-1.654 6.506l-9.586 9.21a1.47 1.47 0 00-.435 1.314l2.26 13.008a6.306 6.306 0 01-2.516 6.21 6.401 6.401 0 01-6.795.513l-11.847-6.14a1.615 1.615 0 00-1.482 0l-11.847 6.143a6.457 6.457 0 01-2.987.737z" fill="#fff"/></svg>