<svg width="46" height="46" fill="none" xmlns="http://www.w3.org/2000/svg"><path d="M24.608 22.463a1.073 1.073 0 100-2.146 1.073 1.073 0 000 2.146zM32.12 22.463a1.073 1.073 0 100-2.146 1.073 1.073 0 000 2.146zM17.1 22.463a1.073 1.073 0 100-2.146 1.073 1.073 0 000 2.146z" stroke="#343434" stroke-width="2" stroke-linecap="round" stroke-linejoin="round"/><path d="M45 21.778a20.485 20.485 0 01-2.2 9.289 20.778 20.778 0 01-18.578 11.489 20.485 20.485 0 01-9.289-2.2L1 45l4.644-13.933a20.484 20.484 0 01-2.2-9.29A20.778 20.778 0 0114.934 3.2 20.484 20.484 0 0124.221 1h1.222A20.729 20.729 0 0145 20.556v1.222z" stroke="#343434" stroke-width="2" stroke-linecap="round" stroke-linejoin="round"/></svg>