<svg width="29" height="26" viewBox="0 0 29 26" fill="none" xmlns="http://www.w3.org/2000/svg">
<path d="M0.738041 22.7707C-0.0338883 24.104 0.92823 25.7727 2.46889 25.7727H26.5311C28.0718 25.7727 29.0339 24.104 28.262 22.7707L16.2309 1.98965C15.4605 0.659082 13.5395 0.659085 12.7691 1.98965L0.738041 22.7707ZM15.9091 20.1364C15.9091 20.9146 15.2782 21.5455 14.5 21.5455C13.7218 21.5455 13.0909 20.9146 13.0909 20.1364C13.0909 19.3581 13.7218 18.7273 14.5 18.7273C15.2782 18.7273 15.9091 19.3581 15.9091 20.1364ZM15.9091 14.5C15.9091 15.2782 15.2782 15.9091 14.5 15.9091C13.7218 15.9091 13.0909 15.2782 13.0909 14.5V11.6818C13.0909 10.9036 13.7218 10.2727 14.5 10.2727C15.2782 10.2727 15.9091 10.9036 15.9091 11.6818V14.5Z" fill="#CD5454"/>
</svg>
