<svg width="32" height="33" fill="none" xmlns="http://www.w3.org/2000/svg"><path d="M27.325 4.685A15.884 15.884 0 0016.018 0C7.208 0 .038 7.167.035 15.977a15.94 15.94 0 002.133 7.987L0 32.002l8.373-1.98a15.97 15.97 0 007.637 1.946h.007c8.808 0 15.978-7.168 15.983-15.977a15.876 15.876 0 00-4.675-11.306zm-3.487 17.002c-.333.933-1.963 1.833-2.696 1.898-.733.067-1.42.331-4.792-.998-4.06-1.6-6.623-5.762-6.822-6.028-.2-.267-1.63-2.165-1.63-4.13 0-1.965 1.032-2.93 1.398-3.33.367-.4.799-.499 1.066-.499.266 0 .533 0 .765.01.285.011.6.026.9.69.354.79 1.13 2.765 1.23 2.965.099.2.166.433.033.699-.132.265-.2.432-.398.665-.2.234-.42.52-.599.7-.2.198-.408.416-.176.814.234.4 1.034 1.707 2.221 2.765 1.527 1.36 2.812 1.781 3.212 1.983.4.2.632.166.865-.101.234-.266.999-1.165 1.264-1.565.266-.4.533-.333.9-.2.366.133 2.33 1.1 2.728 1.3.4.2.665.298.765.465.099.165.099.965-.234 1.898z" fill="#fff"/></svg>