<svg width="31" height="30" fill="none" xmlns="http://www.w3.org/2000/svg"><path d="M1.631 0H19.531v.074a3.107 3.107 0 012.388 3.06V26.09a3.09 3.09 0 01-.901 2.193 3.052 3.052 0 01-2.177.916H3.085v-4.827H.95V0h.682zm13.02 9.638a.69.69 0 01.446-.867.685.685 0 01.86.442c.326 1.022.05 1.734-.486 2.184-.252.213-.56.352-.894.425-.3.066-.617.082-.918.041a2.18 2.18 0 01-.69-.204c-.097.123-.203.22-.325.303a1.705 1.705 0 01-1.04.343 1.87 1.87 0 01-.478-.057c-.147.957-.61 1.84-1.243 2.536a4.65 4.65 0 01-1.535 1.121c-.593.27-1.218.393-1.835.32-.991-.123-1.925-.713-2.575-1.956a.693.693 0 01.284-.933.693.693 0 01.934.295c.406.785.95 1.153 1.51 1.219.366.04.756-.033 1.122-.205.39-.172.763-.45 1.088-.802.69-.752 1.104-1.824.853-2.863v-.008a.689.689 0 01.455-.81.674.674 0 01.86.433.447.447 0 00.244.246.602.602 0 00.309.082c.08 0 .17-.025.243-.074.114-.082.211-.237.268-.483a.684.684 0 011.348.033c.009.024.18.065.382.09.146.024.3.016.447-.017a.715.715 0 00.309-.139c.121-.106.178-.327.056-.695zm14.821-8.255h-4.288V22.99h4.288V1.383zm-2.144 25.764l.82-1.407.805-1.367H25.696l.804 1.366.828 1.408zm2.006-.704l-1.413 2.405a.723.723 0 01-.244.254.694.694 0 01-.942-.245l-1.413-2.414-1.397-2.373-.008-.008-.008-.008v-.016h-.008v-.009l-.008-.008v-.008l-.008-.008v-.008l-.009-.008v-.009l-.008-.008v-.008l-.008-.008v-.008l-.008-.009v-.016l-.008-.008v-.016l-.008-.009v-.016l-.008-.008v-.025l-.008-.008V23.8l-.009-.008V23.702h-.008V.696c0-.385.309-.696.69-.696h5.67a.69.69 0 01.682.695v22.99a.69.69 0 01-.114.385l-1.397 2.373zm-8.787-22.86h-.065c.04-.155.065-.31.065-.458v-.024c0-.68-.406-1.301-1.016-1.571v21.542c.366.082.707.238 1.016.442V3.584zm-1.706 20.79H4.458v3.436H18.84c.471 0 .893-.188 1.202-.507.309-.31.504-.736.504-1.21 0-.467-.195-.9-.504-1.212a1.688 1.688 0 00-1.202-.507zm-.69-22.99H2.322V22.99H18.15V1.383z" fill="#BC3DDC"/></svg>