<svg width="46" height="42" fill="none" xmlns="http://www.w3.org/2000/svg"><path d="M34.622 40.081v-4.248c0-2.254-.863-4.415-2.398-6.008-1.536-1.594-3.619-2.49-5.79-2.49H10.057c-2.171 0-4.254.896-5.79 2.49-1.535 1.593-2.398 3.754-2.398 6.008v4.248M18.249 18.84c4.522 0 8.188-3.804 8.188-8.497s-3.666-8.497-8.188-8.497-8.188 3.804-8.188 8.497 3.665 8.497 8.188 8.497zM44.174 40.082v-4.249a8.705 8.705 0 00-1.716-5.2 8.173 8.173 0 00-4.425-3.02M29.844 2.121a8.172 8.172 0 014.437 3.021 8.705 8.705 0 011.72 5.21c0 1.887-.605 3.72-1.72 5.21a8.172 8.172 0 01-4.437 3.022" stroke="#343434" stroke-width="2" stroke-linecap="round" stroke-linejoin="round"/></svg>